<svg id="Layer_1" data-name="Layer 1" xmlns="http://www.w3.org/2000/svg" viewBox="0 0 201 201"><defs><style>.cls-1{fill:#fff;}.cls-2{fill:#6faac3;}.cls-3{fill:#e03d3e;}.cls-4{fill:#edbe00;}.cls-5{fill:#2e3537;}</style></defs><circle class="cls-1" cx="100.5" cy="100.5" r="100"/><path class="cls-2" d="M141.17,76l30.2-17.44a4.32,4.32,0,0,0,1.48-6.12,87,87,0,0,0-51.32-36.21,4.35,4.35,0,0,0-5.4,3.7L112,54.9a4.34,4.34,0,0,0,2.87,4.61,43.52,43.52,0,0,1,20.67,15.3A4.33,4.33,0,0,0,141.17,76Z"/><path class="cls-3" d="M174.43,64.8,143.91,82.42a4.3,4.3,0,0,0-2,5,43.5,43.5,0,0,1,0,26.11,4.32,4.32,0,0,0,2,5l30.53,17.62a4.35,4.35,0,0,0,6.19-2.09,87.19,87.19,0,0,0,0-67.18A4.36,4.36,0,0,0,174.43,64.8Z"/><path class="cls-4" d="M112.08,146.06l4.15,35a4.35,4.35,0,0,0,5.41,3.69,87,87,0,0,0,51.23-36.21,4.32,4.32,0,0,0-1.47-6.12L141.19,125a4.32,4.32,0,0,0-5.65,1.17,43.59,43.59,0,0,1-20.6,15.31A4.32,4.32,0,0,0,112.08,146.06Z"/><path class="cls-5" d="M100.5,143.93a43.43,43.43,0,0,1,0-86.86h.28a4.36,4.36,0,0,0,4.4-3.83l4.1-34.63a4.32,4.32,0,0,0-4-4.84c-1.58-.09-3.16-.13-4.76-.13a86.86,86.86,0,0,0,0,173.72c1.63,0,3.26,0,4.87-.13a4.32,4.32,0,0,0,4-4.85l-4.1-34.62a4.35,4.35,0,0,0-4.4-3.83Z"/><path class="cls-5" d="M123.3,96.85,92.22,78.9a5,5,0,0,0-7.5,4.33v35.89a5,5,0,0,0,7.5,4.33l31.08-17.94A5,5,0,0,0,123.3,96.85Z"/></svg>